@startuml
'https://plantuml.com/class-diagram

abstract class HTTPServer
abstract AbstractCollection
interface List
interface Collection

List <|-- AbstractList
Collection <|-- AbstractCollection

Collection <|- List
AbstractCollection <|- AbstractList
AbstractList <|-- ArrayList

class ArrayList {
    Object[] elementData
    size()
}


class HTTPServer {



}

enum TimeUnit {
DAYS
HOURS
MINUTES
}

@enduml